<svg xmlns="http://www.w3.org/2000/svg"><symbol id="icon" viewBox="0 0 64 64"><title xmlns="http://www.w3.org/2000/svg" fill="currentColor">interest-Growth-investment-profit-finance</title><g xmlns="http://www.w3.org/2000/svg"><circle cx="38" cy="30" r="2" fill="currentColor"></circle><circle cx="26" cy="20" r="2" fill="currentColor"></circle><path d="M22.057,48.1a5.849,5.849,0,0,1,.889.636L25.5,47.072a22.757,22.757,0,0,1-2.689-.986Z" fill="currentColor"></path><path d="M20.446,49.539a1,1,0,0,1-.584-1.288l2.819-7.486a2,2,0,1,0-3.743-1.41l-2.467,6.551L14.6,45.2l1.39-3.692a23.081,23.081,0,0,1-3.028-3.621L7.305,42.073a2.006,2.006,0,0,0-.689,2.3l2.94,7.83a.993.993,0,0,1,0,.706L8.49,55.727l12.176,4.581,2.114-5.616A4.006,4.006,0,0,0,20.446,49.539Z" fill="currentColor"></path><path d="M41.943,48.1l-.758-2.013a22.757,22.757,0,0,1-2.689.986l2.558,1.663A5.849,5.849,0,0,1,41.943,48.1Z" fill="currentColor"></path><path d="M39.447,41.47a4,4,0,0,1,7.488-2.82l.3.8a21,21,0,1,0-30.47,0l.3-.8a4,4,0,1,1,7.488,2.82l-1.032,2.74a20.977,20.977,0,0,0,16.958,0ZM38,34a4,4,0,1,1,4-4A4,4,0,0,1,38,34ZM15,25a16.918,16.918,0,0,0,2.862,9.443L16.2,35.557a19,19,0,1,1,31.6,0l-1.662-1.114A17,17,0,1,0,15,25Zm7-5a4,4,0,1,1,4,4A4,4,0,0,1,22,20Zm2.707,13.707-1.414-1.414,16-16,1.414,1.414ZM32,44a18.951,18.951,0,0,1-6.333-1.082l.666-1.885a17.149,17.149,0,0,0,11.267.023l.659,1.888A18.925,18.925,0,0,1,32,44Z" fill="currentColor"></path><path d="M57.384,44.379a2.006,2.006,0,0,0-.69-2.306l-5.655-4.185a23.035,23.035,0,0,1-3.028,3.621L49.4,45.2l-1.872.7-2.467-6.551a2,2,0,1,0-3.743,1.41l2.819,7.486a1,1,0,0,1-.584,1.288,4.006,4.006,0,0,0-2.334,5.153l2.114,5.616L55.51,55.727l-1.065-2.813a.993.993,0,0,1,0-.706Z" fill="currentColor"></path></g></symbol></svg>