<svg xmlns="http://www.w3.org/2000/svg" viewBox="0 0 96.001 96">
    <path xmlns="http://www.w3.org/2000/svg"
          d="M85.644,18.715H10.358c-3.092,0-5.607,2.515-5.607,5.607v47.357c0,3.092,2.516,5.607,5.607,5.607h75.285  c3.092,0,5.607-2.515,5.607-5.607V24.322C91.251,21.23,88.735,18.715,85.644,18.715z M15.863,33.719h10.44v6.908h-10.44V33.719z   M15.863,47.536h56.786v3.661H15.863V47.536z M66.923,68.804c-3.157,0-5.727-2.569-5.727-5.726s2.569-5.726,5.727-5.726  c1.147,0,2.216,0.343,3.113,0.927c-1.14,1.278-1.839,2.957-1.839,4.799s0.699,3.521,1.839,4.799  C69.139,68.461,68.07,68.804,66.923,68.804z M75.423,68.804c-1.147,0-2.216-0.343-3.112-0.927c-0.21-0.137-0.41-0.286-0.601-0.448  c-0.19-0.164-0.369-0.341-0.537-0.527c-0.914-1.015-1.476-2.354-1.476-3.824s0.562-2.809,1.476-3.824  c0.168-0.187,0.347-0.364,0.538-0.527c0.189-0.162,0.39-0.312,0.6-0.448c0.896-0.584,1.965-0.927,3.112-0.927  c3.157,0,5.727,2.569,5.727,5.726S78.58,68.804,75.423,68.804z"
          fill="#fff"></path>
</svg>