<svg xmlns="http://www.w3.org/2000/svg"><symbol id="icon" viewBox="0 0 100 100"><g xmlns="http://www.w3.org/2000/svg" transform="translate(0,-952.36218)"><path style="" d="m 6,974.36217 c -1.10457,0 -2,0.8954 -2,2 l 0,46.00003 c 0,1.1046 0.89543,2 2,2 1.10457,0 2,-0.8954 2,-2 l 0,-44.00003 82,0 c 1.10457,0 2,-0.8954 2,-2 0,-1.1046 -0.89543,-2 -2,-2 l -84,0 z m 7.8125,8 c -0.98244,0.0927 -1.81676,1.0125 -1.8125,2 l 0,44.00003 c 10e-5,1.0472 0.95361,1.9999 2,2 l 80,0 c 1.04639,-10e-5 1.9999,-0.9528 2,-2 l 0,-44.00003 c -1e-4,-1.0472 -0.95361,-1.9999 -2,-2 l -80.1875,0 z m 2.1875,4 21.375,0 c -5.73557,4.7788 -9.375,11.9689 -9.375,20.00003 0,8.0317 3.6387,15.23 9.375,20 l -21.375,0 0,-40.00003 z m 28.78125,0 18.4375,0 C 70.75539,989.84947 76,997.48957 76,1006.3622 c 0,8.9073 -5.29089,16.5326 -12.875,20 l -18.25,0 c -7.58411,-3.4674 -12.875,-11.0927 -12.875,-20 0,-8.87263 5.24461,-16.51273 12.78125,-20.00003 z m 25.84375,0 21.375,0 0,40.00003 -21.375,0 c 5.7363,-4.77 9.375,-11.9683 9.375,-20 0,-8.03113 -3.63943,-15.22123 -9.375,-20.00003 z m -25.8125,6 c -1.0472,0.049 -1.8616,1.0465 -1.8125,2.0938 0.049,1.0472 0.9528,1.9555 2,1.9062 l 2,0 0,10.00003 -2,0 c -1.0565,-0.015 -1.9375,0.9433 -1.9375,2 0,1.0568 0.881,2.015 1.9375,2 l 2,0 0,2 -2,0 c -1.1044,0 -2,0.8955 -2,2 0,1.1046 0.8956,2 2,2 l 2,0 0,4 c -0.015,1.0567 0.9433,2 2,2 1.0566,0 2.0149,-0.9433 2,-2 l 0,-4 8,0 c 1.1045,0 2,-0.8954 2,-2 0,-1.1045 -0.8955,-2 -2,-2 l -8,0 0,-2 7,0 c 4.8303,0 9,-3.9902 9,-9 0,-5.00973 -4.1697,-9.00003 -9,-9.00003 l -13.1875,0 z m 6.1875,4 7,0 c 2.5854,0 5,2.2538 5,5.00003 0,2.7463 -2.4146,5 -5,5 l -7,0 0,-10.00003 z" fill="currentColor" fill-opacity="1" stroke="none" marker="none" visibility="visible" display="inline" overflow="visible"></path></g></symbol></svg>