<svg xmlns="http://www.w3.org/2000/svg" width="50" height="50" viewBox="-3 -3 23 22" id="icon">
    <path d="M6.382 5.144a.523.523 0 0 0-.74.74L7.6 7.837c.006.007.017.004.024.01.002.003 0 .006.003.01a.48.48 0 0 0 .676 0l.004-.007c.01-.007.02-.004.03-.012.015-.015.02-.035.034-.05l4.985-4.985a.478.478 0 0 0-.676-.675L8.02 6.784l-1.64-1.64zm6.11.855c0 .02.007.04.007.062 0 2.796-5 8.438-5 8.438s-5-5.642-5-8.438S4.736 1 7.5 1a4.92 4.92 0 0 1 3 1.034V.83a5.938 5.938 0 0 0-3-.83c-3.314 0-6 2.686-6 6s6 10 6 10 6-6.688 6-10h-1.007z"/>
</svg>